<svg id="Capa_1" enable-background="new 0 0 512 512" height="512" viewBox="0 0 512 512" width="512" xmlns="http://www.w3.org/2000/svg"><g><g><path d="m374.096 512-125.918-168.944 75.469 46.523 11.016-45.85 46.963 7.427-6.328-48.457 118.71 178.301h-81.797z" fill="#fd5e60"/></g><g><path d="m137.904 512-38.115-31h-81.797l118.711-178.301-6.328 48.457 46.963-7.427 11.016 45.85 75.469-46.523z" fill="#f98845"/></g><g id="Prize_2_"><g><path d="m256 454.076-35.508-49.043-51.65 31.802-14.18-59.15-59.209 9.36 8.818-59.707-59.092-14.18 31.758-51.665-49.013-35.493 49.014-35.493-31.758-51.665 59.15-14.194-9.434-59.78 59.766 9.448 14.18-59.121 51.68 31.743 35.478-46.938 35.479 46.938 51.68-31.743 14.18 59.121 59.766-9.448-9.434 59.78 59.15 14.194-31.758 51.665 49.013 35.493-49.014 35.493 31.758 51.665-59.092 14.18 8.818 59.707-59.209-9.36-14.18 59.15-51.65-31.802z" fill="#ffdf40"/></g></g><path d="m291.508 405.033 51.65 31.802 14.18-59.15 59.209 9.36-8.818-59.707 59.091-14.18-31.757-51.665 49.013-35.493-49.013-35.493 31.757-51.665-59.15-14.195 9.434-59.78-59.766 9.448-14.18-59.121-51.679 31.744-35.479-46.938v454.076z" fill="#ffbe40"/><g><path d="m256 346c-66.182 0-120-53.833-120-120s53.818-120 120-120 120 53.833 120 120-53.818 120-120 120z" fill="#ffbe40"/></g><path d="m376 226c0-66.167-53.818-120-120-120v240c66.182 0 120-53.833 120-120z" fill="#ff9f40"/><g><path d="m241 277.211-40.605-40.606 21.21-21.21 19.395 19.394 49.395-49.394 21.21 21.21z" fill="#ffdf40"/></g><path d="m256 262.211 55.605-55.606-21.21-21.21-34.395 34.394z" fill="#ffbe40"/></g></svg>