<svg enable-background="new 0 0 24 24" height="512" viewBox="0 0 24 24" width="512" xmlns="http://www.w3.org/2000/svg"><path d="m11.84 7.63c-.52.26-1.16.26-1.68 0l-10.16-5.03v9.4c0 1.24 1.01 2.25 2.25 2.25h7.513 11.487v-11.65z" fill="#eceff1"/><path d="m21.25 3.5v.6l-9.41 5.03c-.52.26-1.16.26-1.68 0l-10.16-5.03v-.6c0-1.24 1.01-2.25 2.25-2.25h16.75c1.24 0 2.25 1.01 2.25 2.25z" fill="#b0bec5"/><circle cx="17.5" cy="17.5" fill="#ffc107" r="6.5"/><path d="m20.25 18.25h-2.75c-.414 0-.75-.336-.75-.75v-2.75c0-.414.336-.75.75-.75s.75.336.75.75v2h2c.414 0 .75.336.75.75s-.336.75-.75.75z"/><path d="m17.5 24c-3.584 0-6.5-2.916-6.5-6.5s2.916-6.5 6.5-6.5 6.5 2.916 6.5 6.5-2.916 6.5-6.5 6.5zm0-11.5c-2.757 0-5 2.243-5 5s2.243 5 5 5 5-2.243 5-5-2.243-5-5-5z"/><path d="m9.25 15h-7c-1.24 0-2.25-1.009-2.25-2.25v-9.5c0-1.241 1.01-2.25 2.25-2.25h17.5c1.24 0 2.25 1.009 2.25 2.25v6c0 .414-.336.75-.75.75s-.75-.336-.75-.75v-6c0-.414-.337-.75-.75-.75h-17.5c-.413 0-.75.336-.75.75v9.5c0 .414.337.75.75.75h7c.414 0 .75.336.75.75s-.336.75-.75.75z"/><path d="m11.001 9.827c-.404 0-.809-.092-1.177-.277l-9.407-4.658c-.371-.184-.522-.633-.339-1.005.184-.371.631-.524 1.005-.339l9.41 4.66c.311.155.706.155 1.011.001l9.413-4.661c.374-.185.821-.032 1.005.339.184.372.032.821-.339 1.005l-9.41 4.66c-.366.183-.769.275-1.172.275z"/></svg>